<mxfile host="app.diagrams.net" modified="2021-10-16T10:54:57.056Z" agent="5.0 (Macintosh; Intel Mac OS X 10_15_7) AppleWebKit/605.1.15 (KHTML, like Gecko) Version/14.1.2 Safari/605.1.15" etag="kQF0hYCJqAJkmaEii2Mo" version="15.5.4" type="github" pages="2">
  <diagram id="C5RBs43oDa-KdzZeNtuy" name="파랑지우개">
    <mxGraphModel dx="1007" dy="700" grid="1" gridSize="10" guides="1" tooltips="1" connect="1" arrows="1" fold="1" page="1" pageScale="1" pageWidth="827" pageHeight="1169" math="0" shadow="0">
      <root>
        <mxCell id="WIyWlLk6GJQsqaUBKTNV-0" />
        <mxCell id="WIyWlLk6GJQsqaUBKTNV-1" parent="WIyWlLk6GJQsqaUBKTNV-0" />
        <mxCell id="Z8gFCuBKRbl_2NiVSG5U-6" value="" style="edgeStyle=orthogonalEdgeStyle;rounded=0;orthogonalLoop=1;jettySize=auto;html=1;" parent="WIyWlLk6GJQsqaUBKTNV-1" source="Z8gFCuBKRbl_2NiVSG5U-2" target="Z8gFCuBKRbl_2NiVSG5U-3" edge="1">
          <mxGeometry relative="1" as="geometry" />
        </mxCell>
        <mxCell id="Z8gFCuBKRbl_2NiVSG5U-7" value="" style="edgeStyle=orthogonalEdgeStyle;rounded=0;orthogonalLoop=1;jettySize=auto;html=1;" parent="WIyWlLk6GJQsqaUBKTNV-1" source="Z8gFCuBKRbl_2NiVSG5U-2" target="Z8gFCuBKRbl_2NiVSG5U-3" edge="1">
          <mxGeometry relative="1" as="geometry" />
        </mxCell>
        <mxCell id="Z8gFCuBKRbl_2NiVSG5U-10" value="" style="edgeStyle=orthogonalEdgeStyle;rounded=0;orthogonalLoop=1;jettySize=auto;html=1;" parent="WIyWlLk6GJQsqaUBKTNV-1" source="Z8gFCuBKRbl_2NiVSG5U-2" target="Z8gFCuBKRbl_2NiVSG5U-3" edge="1">
          <mxGeometry relative="1" as="geometry" />
        </mxCell>
        <mxCell id="Z8gFCuBKRbl_2NiVSG5U-13" value="" style="edgeStyle=orthogonalEdgeStyle;rounded=0;orthogonalLoop=1;jettySize=auto;html=1;" parent="WIyWlLk6GJQsqaUBKTNV-1" source="Z8gFCuBKRbl_2NiVSG5U-2" target="Z8gFCuBKRbl_2NiVSG5U-3" edge="1">
          <mxGeometry relative="1" as="geometry" />
        </mxCell>
        <mxCell id="Z8gFCuBKRbl_2NiVSG5U-17" value="" style="edgeStyle=orthogonalEdgeStyle;rounded=0;orthogonalLoop=1;jettySize=auto;html=1;" parent="WIyWlLk6GJQsqaUBKTNV-1" source="Z8gFCuBKRbl_2NiVSG5U-2" target="Z8gFCuBKRbl_2NiVSG5U-16" edge="1">
          <mxGeometry relative="1" as="geometry" />
        </mxCell>
        <mxCell id="Z8gFCuBKRbl_2NiVSG5U-2" value="로그인 화면" style="rounded=1;whiteSpace=wrap;html=1;absoluteArcSize=1;arcSize=14;strokeWidth=2;" parent="WIyWlLk6GJQsqaUBKTNV-1" vertex="1">
          <mxGeometry x="200" y="180" width="110" height="40" as="geometry" />
        </mxCell>
        <mxCell id="Z8gFCuBKRbl_2NiVSG5U-30" value="" style="edgeStyle=orthogonalEdgeStyle;rounded=0;orthogonalLoop=1;jettySize=auto;html=1;" parent="WIyWlLk6GJQsqaUBKTNV-1" source="Z8gFCuBKRbl_2NiVSG5U-3" target="Z8gFCuBKRbl_2NiVSG5U-28" edge="1">
          <mxGeometry relative="1" as="geometry" />
        </mxCell>
        <mxCell id="Z8gFCuBKRbl_2NiVSG5U-3" value="로그인" style="rounded=1;whiteSpace=wrap;html=1;absoluteArcSize=1;arcSize=14;strokeWidth=2;" parent="WIyWlLk6GJQsqaUBKTNV-1" vertex="1">
          <mxGeometry x="270" y="260" width="110" height="40" as="geometry" />
        </mxCell>
        <mxCell id="Z8gFCuBKRbl_2NiVSG5U-29" value="" style="edgeStyle=orthogonalEdgeStyle;rounded=0;orthogonalLoop=1;jettySize=auto;html=1;" parent="WIyWlLk6GJQsqaUBKTNV-1" source="Z8gFCuBKRbl_2NiVSG5U-16" target="Z8gFCuBKRbl_2NiVSG5U-28" edge="1">
          <mxGeometry relative="1" as="geometry" />
        </mxCell>
        <mxCell id="Z8gFCuBKRbl_2NiVSG5U-16" value="회원가입" style="rounded=1;whiteSpace=wrap;html=1;absoluteArcSize=1;arcSize=14;strokeWidth=2;" parent="WIyWlLk6GJQsqaUBKTNV-1" vertex="1">
          <mxGeometry x="130" y="260" width="110" height="40" as="geometry" />
        </mxCell>
        <mxCell id="Z8gFCuBKRbl_2NiVSG5U-24" value="" style="edgeStyle=orthogonalEdgeStyle;rounded=0;orthogonalLoop=1;jettySize=auto;html=1;" parent="WIyWlLk6GJQsqaUBKTNV-1" source="Z8gFCuBKRbl_2NiVSG5U-22" target="Z8gFCuBKRbl_2NiVSG5U-2" edge="1">
          <mxGeometry relative="1" as="geometry" />
        </mxCell>
        <mxCell id="Z8gFCuBKRbl_2NiVSG5U-22" value="메인화면(비로그인)" style="rounded=1;whiteSpace=wrap;html=1;absoluteArcSize=1;arcSize=14;strokeWidth=2;" parent="WIyWlLk6GJQsqaUBKTNV-1" vertex="1">
          <mxGeometry x="200" y="90" width="110" height="40" as="geometry" />
        </mxCell>
        <mxCell id="Z8gFCuBKRbl_2NiVSG5U-35" value="YES" style="edgeStyle=orthogonalEdgeStyle;rounded=0;orthogonalLoop=1;jettySize=auto;html=1;entryX=0.5;entryY=0;entryDx=0;entryDy=0;" parent="WIyWlLk6GJQsqaUBKTNV-1" source="Z8gFCuBKRbl_2NiVSG5U-28" target="Z8gFCuBKRbl_2NiVSG5U-36" edge="1">
          <mxGeometry relative="1" as="geometry">
            <mxPoint x="160" y="500" as="targetPoint" />
          </mxGeometry>
        </mxCell>
        <mxCell id="Z8gFCuBKRbl_2NiVSG5U-38" value="" style="edgeStyle=orthogonalEdgeStyle;rounded=0;orthogonalLoop=1;jettySize=auto;html=1;entryX=0.5;entryY=0;entryDx=0;entryDy=0;" parent="WIyWlLk6GJQsqaUBKTNV-1" source="Z8gFCuBKRbl_2NiVSG5U-28" target="Z8gFCuBKRbl_2NiVSG5U-39" edge="1">
          <mxGeometry relative="1" as="geometry">
            <mxPoint x="320" y="500" as="targetPoint" />
          </mxGeometry>
        </mxCell>
        <mxCell id="Z8gFCuBKRbl_2NiVSG5U-41" value="NO" style="edgeLabel;html=1;align=center;verticalAlign=middle;resizable=0;points=[];" parent="Z8gFCuBKRbl_2NiVSG5U-38" vertex="1" connectable="0">
          <mxGeometry y="3" relative="1" as="geometry">
            <mxPoint as="offset" />
          </mxGeometry>
        </mxCell>
        <mxCell id="Z8gFCuBKRbl_2NiVSG5U-28" value="오늘 문답을 했는가?" style="rhombus;whiteSpace=wrap;html=1;rounded=1;strokeWidth=2;arcSize=14;" parent="WIyWlLk6GJQsqaUBKTNV-1" vertex="1">
          <mxGeometry x="182.5" y="360" width="145" height="80" as="geometry" />
        </mxCell>
        <mxCell id="Z8gFCuBKRbl_2NiVSG5U-42" value="" style="edgeStyle=orthogonalEdgeStyle;rounded=0;orthogonalLoop=1;jettySize=auto;html=1;" parent="WIyWlLk6GJQsqaUBKTNV-1" source="Z8gFCuBKRbl_2NiVSG5U-36" target="Z8gFCuBKRbl_2NiVSG5U-39" edge="1">
          <mxGeometry relative="1" as="geometry" />
        </mxCell>
        <mxCell id="Z8gFCuBKRbl_2NiVSG5U-36" value="일일 문답 페이지" style="rounded=1;whiteSpace=wrap;html=1;absoluteArcSize=1;arcSize=14;strokeWidth=2;" parent="WIyWlLk6GJQsqaUBKTNV-1" vertex="1">
          <mxGeometry x="130" y="500" width="110" height="40" as="geometry" />
        </mxCell>
        <mxCell id="Z8gFCuBKRbl_2NiVSG5U-73" value="" style="edgeStyle=orthogonalEdgeStyle;rounded=0;orthogonalLoop=1;jettySize=auto;html=1;" parent="WIyWlLk6GJQsqaUBKTNV-1" source="Z8gFCuBKRbl_2NiVSG5U-39" target="Z8gFCuBKRbl_2NiVSG5U-71" edge="1">
          <mxGeometry relative="1" as="geometry" />
        </mxCell>
        <mxCell id="Z8gFCuBKRbl_2NiVSG5U-74" value="상단 배너" style="edgeStyle=orthogonalEdgeStyle;rounded=0;orthogonalLoop=1;jettySize=auto;html=1;exitX=0.5;exitY=1;exitDx=0;exitDy=0;entryX=0.5;entryY=0;entryDx=0;entryDy=0;" parent="WIyWlLk6GJQsqaUBKTNV-1" source="Z8gFCuBKRbl_2NiVSG5U-39" target="Z8gFCuBKRbl_2NiVSG5U-72" edge="1">
          <mxGeometry x="-0.8333" relative="1" as="geometry">
            <mxPoint as="offset" />
          </mxGeometry>
        </mxCell>
        <mxCell id="6wScHdVpOVhXJjf4UBou-6" value="" style="edgeStyle=orthogonalEdgeStyle;rounded=0;orthogonalLoop=1;jettySize=auto;html=1;" edge="1" parent="WIyWlLk6GJQsqaUBKTNV-1" source="Z8gFCuBKRbl_2NiVSG5U-39" target="6wScHdVpOVhXJjf4UBou-5">
          <mxGeometry relative="1" as="geometry" />
        </mxCell>
        <mxCell id="Z8gFCuBKRbl_2NiVSG5U-39" value="메인화면" style="rounded=1;whiteSpace=wrap;html=1;absoluteArcSize=1;arcSize=14;strokeWidth=2;" parent="WIyWlLk6GJQsqaUBKTNV-1" vertex="1">
          <mxGeometry x="200" y="600" width="110" height="40" as="geometry" />
        </mxCell>
        <mxCell id="Z8gFCuBKRbl_2NiVSG5U-47" value="YES" style="edgeStyle=orthogonalEdgeStyle;rounded=0;orthogonalLoop=1;jettySize=auto;html=1;entryX=0.5;entryY=0;entryDx=0;entryDy=0;" parent="WIyWlLk6GJQsqaUBKTNV-1" source="Z8gFCuBKRbl_2NiVSG5U-45" edge="1">
          <mxGeometry relative="1" as="geometry">
            <mxPoint x="102.5" y="980" as="targetPoint" />
          </mxGeometry>
        </mxCell>
        <mxCell id="Z8gFCuBKRbl_2NiVSG5U-50" value="" style="edgeStyle=orthogonalEdgeStyle;rounded=0;orthogonalLoop=1;jettySize=auto;html=1;entryX=0.5;entryY=0;entryDx=0;entryDy=0;exitX=0.5;exitY=1;exitDx=0;exitDy=0;" parent="WIyWlLk6GJQsqaUBKTNV-1" source="Z8gFCuBKRbl_2NiVSG5U-45" target="Z8gFCuBKRbl_2NiVSG5U-51" edge="1">
          <mxGeometry relative="1" as="geometry">
            <mxPoint x="387.5" y="790" as="targetPoint" />
          </mxGeometry>
        </mxCell>
        <mxCell id="Z8gFCuBKRbl_2NiVSG5U-56" value="NO" style="edgeLabel;html=1;align=center;verticalAlign=middle;resizable=0;points=[];" parent="Z8gFCuBKRbl_2NiVSG5U-50" vertex="1" connectable="0">
          <mxGeometry x="-0.6635" y="-1" relative="1" as="geometry">
            <mxPoint x="66" as="offset" />
          </mxGeometry>
        </mxCell>
        <mxCell id="Z8gFCuBKRbl_2NiVSG5U-45" value="유효한 상담 패키지를 &lt;br&gt;등록해두었는가?" style="rhombus;whiteSpace=wrap;html=1;rounded=1;strokeWidth=2;arcSize=14;" parent="WIyWlLk6GJQsqaUBKTNV-1" vertex="1">
          <mxGeometry x="28.13" y="740" width="145" height="80" as="geometry" />
        </mxCell>
        <mxCell id="Z8gFCuBKRbl_2NiVSG5U-78" value="" style="edgeStyle=orthogonalEdgeStyle;rounded=0;orthogonalLoop=1;jettySize=auto;html=1;" parent="WIyWlLk6GJQsqaUBKTNV-1" target="Z8gFCuBKRbl_2NiVSG5U-77" edge="1">
          <mxGeometry relative="1" as="geometry">
            <mxPoint x="102.5" y="1020" as="sourcePoint" />
          </mxGeometry>
        </mxCell>
        <mxCell id="Z8gFCuBKRbl_2NiVSG5U-48" value="예약 관리 페이지" style="rounded=1;whiteSpace=wrap;html=1;absoluteArcSize=1;arcSize=14;strokeWidth=2;" parent="WIyWlLk6GJQsqaUBKTNV-1" vertex="1">
          <mxGeometry x="47.5" y="980" width="110" height="40" as="geometry" />
        </mxCell>
        <mxCell id="Z8gFCuBKRbl_2NiVSG5U-59" style="edgeStyle=orthogonalEdgeStyle;rounded=0;orthogonalLoop=1;jettySize=auto;html=1;exitX=0.5;exitY=1;exitDx=0;exitDy=0;entryX=0.5;entryY=0;entryDx=0;entryDy=0;" parent="WIyWlLk6GJQsqaUBKTNV-1" source="Z8gFCuBKRbl_2NiVSG5U-51" edge="1">
          <mxGeometry relative="1" as="geometry">
            <mxPoint x="102.5" y="980" as="targetPoint" />
          </mxGeometry>
        </mxCell>
        <mxCell id="Bw3-Ah7WPAqujrGXwnBj-30" style="edgeStyle=orthogonalEdgeStyle;rounded=0;orthogonalLoop=1;jettySize=auto;html=1;exitX=1;exitY=0.5;exitDx=0;exitDy=0;entryX=0.1;entryY=0.525;entryDx=0;entryDy=0;entryPerimeter=0;fontSize=12;" parent="WIyWlLk6GJQsqaUBKTNV-1" source="Z8gFCuBKRbl_2NiVSG5U-51" target="Bw3-Ah7WPAqujrGXwnBj-29" edge="1">
          <mxGeometry relative="1" as="geometry" />
        </mxCell>
        <mxCell id="Z8gFCuBKRbl_2NiVSG5U-51" value="의사 선택 페이지" style="rounded=1;whiteSpace=wrap;html=1;absoluteArcSize=1;arcSize=14;strokeWidth=2;" parent="WIyWlLk6GJQsqaUBKTNV-1" vertex="1">
          <mxGeometry x="187.5" y="870" width="110" height="40" as="geometry" />
        </mxCell>
        <mxCell id="Z8gFCuBKRbl_2NiVSG5U-71" value="마이페이지" style="rounded=1;whiteSpace=wrap;html=1;absoluteArcSize=1;arcSize=14;strokeWidth=2;" parent="WIyWlLk6GJQsqaUBKTNV-1" vertex="1">
          <mxGeometry x="250" y="690" width="110" height="40" as="geometry" />
        </mxCell>
        <mxCell id="Z8gFCuBKRbl_2NiVSG5U-72" value="상담내역 페이지" style="rounded=1;whiteSpace=wrap;html=1;absoluteArcSize=1;arcSize=14;strokeWidth=2;" parent="WIyWlLk6GJQsqaUBKTNV-1" vertex="1">
          <mxGeometry x="390" y="690" width="110" height="40" as="geometry" />
        </mxCell>
        <mxCell id="Bw3-Ah7WPAqujrGXwnBj-36" value="" style="edgeStyle=orthogonalEdgeStyle;rounded=0;orthogonalLoop=1;jettySize=auto;html=1;fontSize=12;" parent="WIyWlLk6GJQsqaUBKTNV-1" source="Z8gFCuBKRbl_2NiVSG5U-77" target="Bw3-Ah7WPAqujrGXwnBj-35" edge="1">
          <mxGeometry relative="1" as="geometry" />
        </mxCell>
        <mxCell id="Z8gFCuBKRbl_2NiVSG5U-77" value="상담 페이지" style="rounded=1;whiteSpace=wrap;html=1;absoluteArcSize=1;arcSize=14;strokeWidth=2;" parent="WIyWlLk6GJQsqaUBKTNV-1" vertex="1">
          <mxGeometry x="47.5" y="1100" width="110" height="40" as="geometry" />
        </mxCell>
        <mxCell id="Bw3-Ah7WPAqujrGXwnBj-0" value="&lt;font style=&quot;font-size: 25px&quot;&gt;환자&lt;/font&gt;" style="text;html=1;align=center;verticalAlign=middle;resizable=0;points=[];autosize=1;strokeColor=none;fillColor=none;" parent="WIyWlLk6GJQsqaUBKTNV-1" vertex="1">
          <mxGeometry x="225" y="40" width="60" height="20" as="geometry" />
        </mxCell>
        <mxCell id="Bw3-Ah7WPAqujrGXwnBj-1" value="" style="edgeStyle=orthogonalEdgeStyle;rounded=0;orthogonalLoop=1;jettySize=auto;html=1;" parent="WIyWlLk6GJQsqaUBKTNV-1" source="Bw3-Ah7WPAqujrGXwnBj-6" target="Bw3-Ah7WPAqujrGXwnBj-8" edge="1">
          <mxGeometry relative="1" as="geometry" />
        </mxCell>
        <mxCell id="Bw3-Ah7WPAqujrGXwnBj-2" value="" style="edgeStyle=orthogonalEdgeStyle;rounded=0;orthogonalLoop=1;jettySize=auto;html=1;" parent="WIyWlLk6GJQsqaUBKTNV-1" source="Bw3-Ah7WPAqujrGXwnBj-6" target="Bw3-Ah7WPAqujrGXwnBj-8" edge="1">
          <mxGeometry relative="1" as="geometry" />
        </mxCell>
        <mxCell id="Bw3-Ah7WPAqujrGXwnBj-3" value="" style="edgeStyle=orthogonalEdgeStyle;rounded=0;orthogonalLoop=1;jettySize=auto;html=1;" parent="WIyWlLk6GJQsqaUBKTNV-1" source="Bw3-Ah7WPAqujrGXwnBj-6" target="Bw3-Ah7WPAqujrGXwnBj-8" edge="1">
          <mxGeometry relative="1" as="geometry" />
        </mxCell>
        <mxCell id="Bw3-Ah7WPAqujrGXwnBj-4" value="" style="edgeStyle=orthogonalEdgeStyle;rounded=0;orthogonalLoop=1;jettySize=auto;html=1;" parent="WIyWlLk6GJQsqaUBKTNV-1" source="Bw3-Ah7WPAqujrGXwnBj-6" target="Bw3-Ah7WPAqujrGXwnBj-8" edge="1">
          <mxGeometry relative="1" as="geometry" />
        </mxCell>
        <mxCell id="Bw3-Ah7WPAqujrGXwnBj-5" value="" style="edgeStyle=orthogonalEdgeStyle;rounded=0;orthogonalLoop=1;jettySize=auto;html=1;" parent="WIyWlLk6GJQsqaUBKTNV-1" source="Bw3-Ah7WPAqujrGXwnBj-6" target="Bw3-Ah7WPAqujrGXwnBj-10" edge="1">
          <mxGeometry relative="1" as="geometry" />
        </mxCell>
        <mxCell id="Bw3-Ah7WPAqujrGXwnBj-6" value="로그인 화면" style="rounded=1;whiteSpace=wrap;html=1;absoluteArcSize=1;arcSize=14;strokeWidth=2;" parent="WIyWlLk6GJQsqaUBKTNV-1" vertex="1">
          <mxGeometry x="680" y="180" width="110" height="40" as="geometry" />
        </mxCell>
        <mxCell id="Bw3-Ah7WPAqujrGXwnBj-7" value="" style="edgeStyle=orthogonalEdgeStyle;rounded=0;orthogonalLoop=1;jettySize=auto;html=1;entryX=0.5;entryY=0;entryDx=0;entryDy=0;" parent="WIyWlLk6GJQsqaUBKTNV-1" source="Bw3-Ah7WPAqujrGXwnBj-8" target="Bw3-Ah7WPAqujrGXwnBj-14" edge="1">
          <mxGeometry relative="1" as="geometry">
            <mxPoint x="735" y="360" as="targetPoint" />
          </mxGeometry>
        </mxCell>
        <mxCell id="Bw3-Ah7WPAqujrGXwnBj-8" value="로그인" style="rounded=1;whiteSpace=wrap;html=1;absoluteArcSize=1;arcSize=14;strokeWidth=2;" parent="WIyWlLk6GJQsqaUBKTNV-1" vertex="1">
          <mxGeometry x="750" y="260" width="110" height="40" as="geometry" />
        </mxCell>
        <mxCell id="Bw3-Ah7WPAqujrGXwnBj-9" value="" style="edgeStyle=orthogonalEdgeStyle;rounded=0;orthogonalLoop=1;jettySize=auto;html=1;entryX=0.5;entryY=0;entryDx=0;entryDy=0;" parent="WIyWlLk6GJQsqaUBKTNV-1" source="Bw3-Ah7WPAqujrGXwnBj-10" target="Bw3-Ah7WPAqujrGXwnBj-14" edge="1">
          <mxGeometry relative="1" as="geometry">
            <mxPoint x="735" y="360" as="targetPoint" />
          </mxGeometry>
        </mxCell>
        <mxCell id="Bw3-Ah7WPAqujrGXwnBj-10" value="회원가입" style="rounded=1;whiteSpace=wrap;html=1;absoluteArcSize=1;arcSize=14;strokeWidth=2;" parent="WIyWlLk6GJQsqaUBKTNV-1" vertex="1">
          <mxGeometry x="610" y="260" width="110" height="40" as="geometry" />
        </mxCell>
        <mxCell id="Bw3-Ah7WPAqujrGXwnBj-11" value="" style="edgeStyle=orthogonalEdgeStyle;rounded=0;orthogonalLoop=1;jettySize=auto;html=1;" parent="WIyWlLk6GJQsqaUBKTNV-1" source="Bw3-Ah7WPAqujrGXwnBj-12" target="Bw3-Ah7WPAqujrGXwnBj-6" edge="1">
          <mxGeometry relative="1" as="geometry" />
        </mxCell>
        <mxCell id="Bw3-Ah7WPAqujrGXwnBj-12" value="메인화면(비로그인)" style="rounded=1;whiteSpace=wrap;html=1;absoluteArcSize=1;arcSize=14;strokeWidth=2;" parent="WIyWlLk6GJQsqaUBKTNV-1" vertex="1">
          <mxGeometry x="680" y="90" width="110" height="40" as="geometry" />
        </mxCell>
        <mxCell id="Bw3-Ah7WPAqujrGXwnBj-13" value="&lt;font style=&quot;font-size: 25px&quot;&gt;의사&lt;/font&gt;" style="text;html=1;align=center;verticalAlign=middle;resizable=0;points=[];autosize=1;strokeColor=none;fillColor=none;" parent="WIyWlLk6GJQsqaUBKTNV-1" vertex="1">
          <mxGeometry x="705" y="40" width="60" height="20" as="geometry" />
        </mxCell>
        <mxCell id="Bw3-Ah7WPAqujrGXwnBj-16" value="" style="edgeStyle=orthogonalEdgeStyle;rounded=0;orthogonalLoop=1;jettySize=auto;html=1;fontSize=25;" parent="WIyWlLk6GJQsqaUBKTNV-1" source="Bw3-Ah7WPAqujrGXwnBj-14" target="Bw3-Ah7WPAqujrGXwnBj-15" edge="1">
          <mxGeometry relative="1" as="geometry" />
        </mxCell>
        <mxCell id="Bw3-Ah7WPAqujrGXwnBj-18" value="" style="edgeStyle=orthogonalEdgeStyle;rounded=0;orthogonalLoop=1;jettySize=auto;html=1;fontSize=25;" parent="WIyWlLk6GJQsqaUBKTNV-1" source="Bw3-Ah7WPAqujrGXwnBj-14" target="Bw3-Ah7WPAqujrGXwnBj-17" edge="1">
          <mxGeometry relative="1" as="geometry" />
        </mxCell>
        <mxCell id="Bw3-Ah7WPAqujrGXwnBj-32" value="" style="edgeStyle=orthogonalEdgeStyle;rounded=0;orthogonalLoop=1;jettySize=auto;html=1;fontSize=12;" parent="WIyWlLk6GJQsqaUBKTNV-1" source="Bw3-Ah7WPAqujrGXwnBj-14" target="Bw3-Ah7WPAqujrGXwnBj-31" edge="1">
          <mxGeometry relative="1" as="geometry" />
        </mxCell>
        <mxCell id="Bw3-Ah7WPAqujrGXwnBj-14" value="메인화면" style="rounded=1;whiteSpace=wrap;html=1;absoluteArcSize=1;arcSize=14;strokeWidth=2;" parent="WIyWlLk6GJQsqaUBKTNV-1" vertex="1">
          <mxGeometry x="680" y="360" width="110" height="40" as="geometry" />
        </mxCell>
        <mxCell id="Bw3-Ah7WPAqujrGXwnBj-20" value="" style="edgeStyle=orthogonalEdgeStyle;rounded=0;orthogonalLoop=1;jettySize=auto;html=1;fontSize=25;" parent="WIyWlLk6GJQsqaUBKTNV-1" source="Bw3-Ah7WPAqujrGXwnBj-15" target="Bw3-Ah7WPAqujrGXwnBj-19" edge="1">
          <mxGeometry relative="1" as="geometry" />
        </mxCell>
        <mxCell id="Bw3-Ah7WPAqujrGXwnBj-15" value="일정 캘린더" style="rounded=1;whiteSpace=wrap;html=1;absoluteArcSize=1;arcSize=14;strokeWidth=2;" parent="WIyWlLk6GJQsqaUBKTNV-1" vertex="1">
          <mxGeometry x="610" y="440" width="110" height="40" as="geometry" />
        </mxCell>
        <mxCell id="Bw3-Ah7WPAqujrGXwnBj-17" value="상담 내역 페이지(환자단위" style="rounded=1;whiteSpace=wrap;html=1;absoluteArcSize=1;arcSize=14;strokeWidth=2;" parent="WIyWlLk6GJQsqaUBKTNV-1" vertex="1">
          <mxGeometry x="750" y="440" width="110" height="40" as="geometry" />
        </mxCell>
        <mxCell id="Bw3-Ah7WPAqujrGXwnBj-26" style="edgeStyle=orthogonalEdgeStyle;rounded=0;orthogonalLoop=1;jettySize=auto;html=1;exitX=0;exitY=0.5;exitDx=0;exitDy=0;entryX=0.875;entryY=0.5;entryDx=0;entryDy=0;entryPerimeter=0;fontSize=25;" parent="WIyWlLk6GJQsqaUBKTNV-1" source="Bw3-Ah7WPAqujrGXwnBj-19" target="Bw3-Ah7WPAqujrGXwnBj-25" edge="1">
          <mxGeometry relative="1" as="geometry" />
        </mxCell>
        <mxCell id="Bw3-Ah7WPAqujrGXwnBj-19" value="상담 페이지" style="rounded=1;whiteSpace=wrap;html=1;absoluteArcSize=1;arcSize=14;strokeWidth=2;" parent="WIyWlLk6GJQsqaUBKTNV-1" vertex="1">
          <mxGeometry x="610" y="540" width="110" height="40" as="geometry" />
        </mxCell>
        <mxCell id="Bw3-Ah7WPAqujrGXwnBj-25" value="&lt;font style=&quot;font-size: 12px&quot;&gt;상담 내역 페이지&lt;/font&gt;" style="ellipse;shape=cloud;whiteSpace=wrap;html=1;fontSize=25;" parent="WIyWlLk6GJQsqaUBKTNV-1" vertex="1">
          <mxGeometry x="440" y="570" width="120" height="80" as="geometry" />
        </mxCell>
        <mxCell id="Bw3-Ah7WPAqujrGXwnBj-29" value="상담 상품 선택&lt;br&gt;및 결제" style="ellipse;shape=cloud;whiteSpace=wrap;html=1;fontSize=12;" parent="WIyWlLk6GJQsqaUBKTNV-1" vertex="1">
          <mxGeometry x="340" y="840" width="120" height="80" as="geometry" />
        </mxCell>
        <mxCell id="Bw3-Ah7WPAqujrGXwnBj-31" value="상담 패키지 관리" style="rounded=1;whiteSpace=wrap;html=1;absoluteArcSize=1;arcSize=14;strokeWidth=2;" parent="WIyWlLk6GJQsqaUBKTNV-1" vertex="1">
          <mxGeometry x="890" y="440" width="110" height="40" as="geometry" />
        </mxCell>
        <mxCell id="Bw3-Ah7WPAqujrGXwnBj-38" value="YES" style="edgeStyle=orthogonalEdgeStyle;rounded=0;orthogonalLoop=1;jettySize=auto;html=1;fontSize=12;" parent="WIyWlLk6GJQsqaUBKTNV-1" source="Bw3-Ah7WPAqujrGXwnBj-35" target="Bw3-Ah7WPAqujrGXwnBj-37" edge="1">
          <mxGeometry relative="1" as="geometry" />
        </mxCell>
        <mxCell id="Bw3-Ah7WPAqujrGXwnBj-42" value="NO" style="edgeStyle=orthogonalEdgeStyle;rounded=0;orthogonalLoop=1;jettySize=auto;html=1;exitX=1;exitY=0.5;exitDx=0;exitDy=0;entryX=1;entryY=0.5;entryDx=0;entryDy=0;fontSize=12;" parent="WIyWlLk6GJQsqaUBKTNV-1" source="Bw3-Ah7WPAqujrGXwnBj-35" target="Z8gFCuBKRbl_2NiVSG5U-77" edge="1">
          <mxGeometry relative="1" as="geometry" />
        </mxCell>
        <mxCell id="Bw3-Ah7WPAqujrGXwnBj-35" value="상담 패키지가 만료되었는가?" style="rhombus;whiteSpace=wrap;html=1;rounded=1;strokeWidth=2;arcSize=14;" parent="WIyWlLk6GJQsqaUBKTNV-1" vertex="1">
          <mxGeometry x="31.88" y="1190" width="141.25" height="80" as="geometry" />
        </mxCell>
        <mxCell id="Bw3-Ah7WPAqujrGXwnBj-39" style="edgeStyle=orthogonalEdgeStyle;rounded=0;orthogonalLoop=1;jettySize=auto;html=1;exitX=1;exitY=0.5;exitDx=0;exitDy=0;entryX=1;entryY=0.5;entryDx=0;entryDy=0;fontSize=12;" parent="WIyWlLk6GJQsqaUBKTNV-1" source="Bw3-Ah7WPAqujrGXwnBj-37" target="Z8gFCuBKRbl_2NiVSG5U-77" edge="1">
          <mxGeometry relative="1" as="geometry">
            <Array as="points">
              <mxPoint x="220" y="1330" />
              <mxPoint x="220" y="1120" />
            </Array>
          </mxGeometry>
        </mxCell>
        <mxCell id="Bw3-Ah7WPAqujrGXwnBj-37" value="리뷰 작성" style="rounded=1;whiteSpace=wrap;html=1;absoluteArcSize=1;arcSize=14;strokeWidth=2;" parent="WIyWlLk6GJQsqaUBKTNV-1" vertex="1">
          <mxGeometry x="47.5" y="1310" width="110" height="40" as="geometry" />
        </mxCell>
        <mxCell id="6wScHdVpOVhXJjf4UBou-7" value="" style="edgeStyle=orthogonalEdgeStyle;rounded=0;orthogonalLoop=1;jettySize=auto;html=1;" edge="1" parent="WIyWlLk6GJQsqaUBKTNV-1" source="6wScHdVpOVhXJjf4UBou-5" target="Z8gFCuBKRbl_2NiVSG5U-45">
          <mxGeometry relative="1" as="geometry" />
        </mxCell>
        <mxCell id="6wScHdVpOVhXJjf4UBou-10" value="YES" style="edgeLabel;html=1;align=center;verticalAlign=middle;resizable=0;points=[];" vertex="1" connectable="0" parent="6wScHdVpOVhXJjf4UBou-7">
          <mxGeometry x="0.5417" y="1" relative="1" as="geometry">
            <mxPoint as="offset" />
          </mxGeometry>
        </mxCell>
        <mxCell id="6wScHdVpOVhXJjf4UBou-8" style="edgeStyle=orthogonalEdgeStyle;rounded=0;orthogonalLoop=1;jettySize=auto;html=1;exitX=0.5;exitY=1;exitDx=0;exitDy=0;entryX=0;entryY=0.5;entryDx=0;entryDy=0;" edge="1" parent="WIyWlLk6GJQsqaUBKTNV-1" source="6wScHdVpOVhXJjf4UBou-5" target="Z8gFCuBKRbl_2NiVSG5U-71">
          <mxGeometry relative="1" as="geometry" />
        </mxCell>
        <mxCell id="6wScHdVpOVhXJjf4UBou-9" value="NO" style="edgeLabel;html=1;align=center;verticalAlign=middle;resizable=0;points=[];" vertex="1" connectable="0" parent="6wScHdVpOVhXJjf4UBou-8">
          <mxGeometry x="-0.0564" y="-2" relative="1" as="geometry">
            <mxPoint as="offset" />
          </mxGeometry>
        </mxCell>
        <mxCell id="6wScHdVpOVhXJjf4UBou-5" value="추가정보를&lt;br&gt;입력하였는가?" style="rhombus;whiteSpace=wrap;html=1;rounded=1;strokeWidth=2;arcSize=14;" vertex="1" parent="WIyWlLk6GJQsqaUBKTNV-1">
          <mxGeometry x="33.13" y="580" width="135" height="80" as="geometry" />
        </mxCell>
      </root>
    </mxGraphModel>
  </diagram>
  <diagram id="BKrTcY51ppbzOoWodUx3" name="Page-2">
    <mxGraphModel dx="1208" dy="840" grid="1" gridSize="10" guides="1" tooltips="1" connect="1" arrows="1" fold="1" page="1" pageScale="1" pageWidth="827" pageHeight="1169" math="0" shadow="0">
      <root>
        <mxCell id="AGv0k25v30YlGuk3J2FF-0" />
        <mxCell id="AGv0k25v30YlGuk3J2FF-1" parent="AGv0k25v30YlGuk3J2FF-0" />
      </root>
    </mxGraphModel>
  </diagram>
</mxfile>
